<svg width="24" height="24" viewBox="0 0 20 20" xmlns="http://www.w3.org/2000/svg">
    <g transform="translate(-2 -2)">
        <rect fill="#1a73e8" width="18" height="18" rx="1" transform="translate(3 3)" />
        <path d="M12 8H7m0 4h5M7 16h5M20 3H4A1 1 0 0 0 3 4v16a1 1 0 0 0 1 1h16a1 1 0 0 0 1-1V4a1 1 0 0 0-1-1Z" fill="none" stroke="#000000" stroke-linecap="round" stroke-linejoin="round" stroke-width="2" />
        <line x1="0.1" transform="translate(16.45 8)" fill="none" stroke="#000000" stroke-linecap="round" stroke-linejoin="round" stroke-width="2.5" />
        <line x1="0.1" transform="translate(16.45 12)" fill="none" stroke="#000000" stroke-linecap="round" stroke-linejoin="round" stroke-width="2.5" />
        <line x1="0.1" transform="translate(16.45 16)" fill="none" stroke="#000000" stroke-linecap="round" stroke-linejoin="round" stroke-width="2.5" />
    </g>
</svg>